<svg xmlns="http://www.w3.org/2000/svg" width="29.254" height="27.072" viewBox="0 0 29.254 27.072">
  <path id="Icon_feather-gitlab" data-name="Icon feather-gitlab" d="M28.24,18.272,15.087,27.831,1.934,18.272a1.037,1.037,0,0,1-.371-1.161L3.07,12.443,6.084,3.168a.519.519,0,0,1,.136-.2.531.531,0,0,1,.716,0,.519.519,0,0,1,.136.222l3.013,9.25h10L23.1,3.168a.519.519,0,0,1,.136-.2.531.531,0,0,1,.716,0,.519.519,0,0,1,.136.222L27.1,12.468l1.568,4.644a1.037,1.037,0,0,1-.432,1.161Z" transform="translate(-0.485 -1.759)" fill="none" stroke="#62fa88" stroke-linecap="round" stroke-linejoin="round" stroke-width="2"/>
</svg>
